{
    "asset" : {
        "generator" : "Khronos glTF Blender I/O v1.3.48",
        "version" : "2.0"
    },
    "scene" : 0,
    "scenes" : [
        {
            "name" : "Scene",
            "nodes" : [
                0
            ]
        }
    ],
    "nodes" : [
        {
            "mesh" : 0,
            "name" : "Cube.001"
        }
    ],
    "materials" : [
        {
            "doubleSided" : true,
            "emissiveFactor" : [
                1,
                1,
                1
            ],
            "emissiveTexture" : {
                "index" : 0,
                "texCoord" : 0
            },
            "name" : "Material",
            "pbrMetallicRoughness" : {
                "baseColorTexture" : {
                    "index" : 1,
                    "texCoord" : 0
                },
                "metallicFactor" : 0,
                "roughnessFactor" : 0.4000000059604645
            }
        }
    ],
    "meshes" : [
        {
            "name" : "Cube.001",
            "primitives" : [
                {
                    "attributes" : {
                        "POSITION" : 0,
                        "NORMAL" : 1,
                        "TEXCOORD_0" : 2
                    },
                    "indices" : 3,
                    "material" : 0
                }
            ]
        }
    ],
    "textures" : [
        {
            "source" : 0
        },
        {
            "source" : 1
        }
    ],
    "images" : [
        {
            "mimeType" : "image/hdr",
            "name" : "alienhead_em",
            "uri" : "textures/alienhead_em.hdr"
        },
        {
            "mimeType" : "image/png",
            "name" : "alienhead_tex",
            "uri" : "textures/alienhead_tex.png"
        }
    ],
    "accessors" : [
        {
            "bufferView" : 0,
            "componentType" : 5126,
            "count" : 6290,
            "max" : [
                0.7423301339149475,
                0.8597581386566162,
                0.8477925658226013
            ],
            "min" : [
                -0.7423302531242371,
                -0.8103632926940918,
                -0.7485279440879822
            ],
            "type" : "VEC3"
        },
        {
            "bufferView" : 1,
            "componentType" : 5126,
            "count" : 6290,
            "type" : "VEC3"
        },
        {
            "bufferView" : 2,
            "componentType" : 5126,
            "count" : 6290,
            "type" : "VEC2"
        },
        {
            "bufferView" : 3,
            "componentType" : 5123,
            "count" : 25968,
            "type" : "SCALAR"
        }
    ],
    "bufferViews" : [
        {
            "buffer" : 0,
            "byteLength" : 75480,
            "byteOffset" : 0
        },
        {
            "buffer" : 0,
            "byteLength" : 75480,
            "byteOffset" : 75480
        },
        {
            "buffer" : 0,
            "byteLength" : 50320,
            "byteOffset" : 150960
        },
        {
            "buffer" : 0,
            "byteLength" : 51936,
            "byteOffset" : 201280
        }
    ],
    "buffers" : [
        {
            "byteLength" : 253216,
            "uri" : "alienhead.bin"
        }
    ]
}
