# Blender v2.90.0 OBJ File: ''
# www.blender.org
mtllib woompy.mtl
o Cube
v 1.000000 1.000000 -1.000000
v 2.144262 -2.139829 -1.617360
v 1.284028 1.200377 2.209676
v 1.085231 -1.295827 0.999100
v -1.087632 0.960687 -1.317014
v -0.945288 -1.594217 -1.776738
v -1.277996 1.441174 1.217224
v -1.410198 -1.551229 0.923740
v -1.189051 -0.873115 0.334411
v 0.000000 -1.000000 -1.000000
v 1.000000 0.000000 -1.000000
v -1.428101 0.173296 1.098954
v 1.000000 0.000000 1.000000
v -1.087632 -0.039313 -1.317014
v -0.263790 1.407335 1.210978
v 1.690195 1.424832 -0.625372
v 0.085231 -1.295827 0.999100
v -1.121915 1.087304 -0.114997
v -0.087632 0.960687 -1.317014
v 1.085231 -1.295827 -0.000900
v -0.087632 -0.039313 -1.317014
v 1.000000 0.000000 0.000000
v 0.085231 -1.295827 -0.000900
v -1.394912 0.320778 0.297839
v -0.021219 0.022257 1.098184
v -0.112431 1.064714 -0.119167
v -1.344042 -1.258950 0.574336
v -0.472644 -1.297109 -1.388369
v 1.572131 -1.069915 -1.308680
v -1.140244 0.670705 1.206172
v 1.020181 -0.570045 0.999787
v -0.972644 -0.797109 -1.388369
v -0.964201 1.663713 1.394094
v 1.351851 1.217181 0.216077
v 0.705765 -1.714189 0.997827
v -1.062643 1.019595 -0.607506
v 0.500000 1.000000 -1.000000
v 1.572131 -1.569915 -0.808680
v -0.985906 -1.109430 -0.616307
v 1.072131 -1.569915 -1.308680
v 1.000000 0.500000 -1.000000
v -1.443170 -0.537652 1.251766
v 1.142014 0.600189 1.604838
v -1.211562 0.405089 -1.765339
v 0.642014 1.100189 1.604838
v 1.345098 1.212416 -0.812686
v -0.750464 -1.274019 1.256442
v -1.299403 1.591841 0.646267
v -0.711562 0.905089 -1.765339
v 1.205765 -1.714189 0.497827
v 0.500000 0.000000 -1.000000
v -0.711562 -0.094911 -1.765339
v 0.000000 -0.500000 -1.000000
v -0.211562 0.405089 -1.765339
v 1.000000 0.000000 0.500000
v 1.000000 0.000000 -0.500000
v 1.020181 -0.570045 -0.000213
v 1.345098 0.712416 -0.312686
v 0.205765 -1.714189 0.497827
v 0.000000 -1.000000 -0.500000
v -0.505181 -0.925057 0.138074
v 0.705765 -1.714189 -0.002173
v -1.022831 0.044762 -0.485112
v -1.581416 0.283316 0.619674
v -1.669910 0.098381 0.596737
v -1.055376 0.529976 -0.049438
v -0.869483 0.234915 1.947784
v 0.500000 0.000000 1.000000
v -0.015641 -0.570037 1.206149
v -0.095388 0.628064 1.107111
v -0.221645 1.358586 0.572197
v -0.079683 1.011950 -0.669149
v 0.845098 1.212416 -0.312686
v -0.731135 1.144370 -0.235576
v -0.709019 1.021382 -0.968583
v 0.642944 1.087986 -0.629519
v 0.694197 1.124144 0.588768
v 0.558824 0.541499 1.250532
v 0.585231 -0.795827 0.999100
v -0.909507 -0.609816 2.127417
v -1.207591 0.632363 0.514184
v -1.546537 -0.124567 0.798750
v -1.062207 -0.299014 -0.199220
v 0.736984 -1.236066 -0.627859
v -0.490745 -1.090177 -0.611546
v -0.637005 -1.110258 0.762645
v 1.142944 0.587986 -0.629519
v 1.236984 -0.736066 -0.627859
v 1.085231 -0.795827 0.499100
v -0.923124 0.310178 -2.530679
v -0.488669 -0.623066 -1.160868
v 0.736984 -0.736066 -1.127859
v 0.500000 0.500000 -1.000000
v 1.182377 0.615805 0.538426
v 0.911531 -2.428379 0.495655
v -1.098793 0.466973 -0.829189
v -0.770491 0.893831 1.313968
v -1.052869 2.044911 0.795745
vt 0.812500 0.687500
vt 0.875000 0.687500
vt 0.875000 0.750000
vt 0.812500 0.750000
vt 0.562500 0.937500
vt 0.625000 0.937500
vt 0.625000 1.000000
vt 0.562500 1.000000
vt 0.562500 0.187500
vt 0.625000 0.187500
vt 0.625000 0.250000
vt 0.562500 0.250000
vt 0.312500 0.687500
vt 0.375000 0.687500
vt 0.375000 0.750000
vt 0.312500 0.750000
vt 0.562500 0.687500
vt 0.625000 0.687500
vt 0.625000 0.750000
vt 0.562500 0.750000
vt 0.562500 0.437500
vt 0.625000 0.437500
vt 0.625000 0.500000
vt 0.562500 0.500000
vt 0.437500 0.437500
vt 0.500000 0.437500
vt 0.500000 0.500000
vt 0.437500 0.500000
vt 0.437500 0.312500
vt 0.500000 0.312500
vt 0.500000 0.375000
vt 0.437500 0.375000
vt 0.562500 0.312500
vt 0.625000 0.312500
vt 0.625000 0.375000
vt 0.562500 0.375000
vt 0.437500 0.687500
vt 0.500000 0.687500
vt 0.500000 0.750000
vt 0.437500 0.750000
vt 0.437500 0.562500
vt 0.500000 0.562500
vt 0.500000 0.625000
vt 0.437500 0.625000
vt 0.562500 0.562500
vt 0.625000 0.562500
vt 0.625000 0.625000
vt 0.562500 0.625000
vt 0.187500 0.687500
vt 0.250000 0.687500
vt 0.250000 0.750000
vt 0.187500 0.750000
vt 0.187500 0.562500
vt 0.250000 0.562500
vt 0.250000 0.625000
vt 0.187500 0.625000
vt 0.312500 0.562500
vt 0.375000 0.562500
vt 0.375000 0.625000
vt 0.312500 0.625000
vt 0.437500 0.187500
vt 0.500000 0.187500
vt 0.500000 0.250000
vt 0.437500 0.250000
vt 0.437500 0.062500
vt 0.500000 0.062500
vt 0.500000 0.125000
vt 0.437500 0.125000
vt 0.562500 0.062500
vt 0.625000 0.062500
vt 0.625000 0.125000
vt 0.562500 0.125000
vt 0.437500 0.937500
vt 0.500000 0.937500
vt 0.500000 1.000000
vt 0.437500 1.000000
vt 0.437500 0.812500
vt 0.500000 0.812500
vt 0.500000 0.875000
vt 0.437500 0.875000
vt 0.562500 0.812500
vt 0.625000 0.812500
vt 0.625000 0.875000
vt 0.562500 0.875000
vt 0.687500 0.687500
vt 0.750000 0.687500
vt 0.750000 0.750000
vt 0.687500 0.750000
vt 0.687500 0.562500
vt 0.750000 0.562500
vt 0.750000 0.625000
vt 0.687500 0.625000
vt 0.812500 0.562500
vt 0.875000 0.562500
vt 0.875000 0.625000
vt 0.812500 0.625000
vt 0.750000 0.500000
vt 0.812500 0.500000
vt 0.875000 0.500000
vt 0.687500 0.500000
vt 0.375000 0.812500
vt 0.375000 0.875000
vt 0.375000 0.937500
vt 0.375000 1.000000
vt 0.500000 0.000000
vt 0.562500 0.000000
vt 0.625000 0.000000
vt 0.375000 0.062500
vt 0.375000 0.125000
vt 0.375000 0.000000
vt 0.437500 0.000000
vt 0.375000 0.187500
vt 0.375000 0.250000
vt 0.250000 0.500000
vt 0.312500 0.500000
vt 0.375000 0.500000
vt 0.125000 0.562500
vt 0.125000 0.625000
vt 0.125000 0.500000
vt 0.187500 0.500000
vt 0.125000 0.687500
vt 0.125000 0.750000
vt 0.375000 0.312500
vt 0.375000 0.375000
vt 0.375000 0.437500
vn -0.8000 0.5142 0.3092
vn -0.3122 -0.1229 0.9420
vn -0.9923 0.0974 0.0759
vn 0.6513 -0.3894 0.6513
vn 0.9657 -0.2577 0.0314
vn 0.0000 0.0000 -1.0000
vn -0.0825 0.1991 -0.9765
vn 0.4736 -0.5162 -0.7136
vn 0.5346 0.5346 -0.6545
vn 0.9959 0.0768 0.0474
vn 0.9712 0.1755 0.1609
vn 0.7358 -0.4788 -0.4788
vn -0.2972 -0.9395 0.1705
vn -0.2523 -0.9638 -0.0866
vn 0.0508 -0.9911 -0.1227
vn -0.9977 -0.0671 0.0071
vn -0.9023 0.4194 0.0997
vn -0.9753 -0.0930 -0.2001
vn -0.8357 0.1429 0.5302
vn 0.2803 0.0920 0.9555
vn -0.3798 -0.3213 0.8675
vn 0.2846 0.9586 0.0019
vn -0.1454 0.9745 -0.1708
vn -0.1821 0.9697 -0.1630
vn 0.1136 0.9850 -0.1301
vn 0.0323 0.9928 -0.1154
vn -0.0537 0.9920 -0.1144
vn -0.2918 0.9109 -0.2918
vn -0.1505 0.9194 -0.3634
vn -0.0524 0.9904 -0.1277
vn -0.1484 0.9889 0.0075
vn -0.1417 0.9817 0.1269
vn 0.0344 0.9919 -0.1224
vn -0.0579 -0.2209 0.9736
vn -0.2308 -0.5571 0.7977
vn -0.4949 -0.4949 0.7142
vn 0.1103 -0.1103 0.9878
vn -0.0013 -0.0013 1.0000
vn -0.0005 -0.0009 1.0000
vn -0.5604 -0.5231 0.6422
vn 0.5003 -0.4703 0.7270
vn 0.7135 0.1210 0.6901
vn -0.7008 0.6400 -0.3150
vn -0.7747 0.6052 0.1830
vn -0.9890 -0.1360 0.0574
vn -0.9094 -0.2124 -0.3577
vn -0.9943 -0.0986 -0.0405
vn -0.9503 0.0729 0.3026
vn -0.9983 -0.0464 -0.0359
vn -0.9165 -0.1443 -0.3731
vn -0.8582 -0.0510 -0.5108
vn -0.4138 -0.7591 -0.5025
vn -0.3709 -0.9159 0.1537
vn -0.3327 -0.8824 0.3327
vn 0.0106 -0.9729 0.2310
vn 0.1665 -0.9270 0.3360
vn 0.2972 -0.9418 0.1569
vn 0.4016 -0.8386 -0.3680
vn 0.0554 -0.8415 -0.5374
vn -0.5906 -0.7083 -0.3865
vn 0.9040 -0.3949 -0.1636
vn 0.9785 -0.1459 -0.1459
vn 0.7907 -0.2343 -0.5656
vn 0.9035 0.1870 0.3856
vn 0.8813 0.3341 0.3341
vn 0.9150 0.3726 0.1544
vn 0.9875 0.1113 0.1113
vn 0.9875 0.1116 -0.1116
vn 0.9959 0.0769 -0.0475
vn 0.5819 -0.5819 -0.5681
vn -0.6774 -0.6774 -0.2869
vn -0.6388 0.6388 -0.4289
vn 0.4286 0.1775 -0.8859
vn 0.3682 0.3682 -0.8537
vn -0.1721 -0.4155 -0.8932
vn -0.1691 0.1691 -0.9710
vn -0.1989 0.0824 -0.9765
vn 0.1225 -0.1225 -0.9849
vn 0.6335 -0.2624 -0.7279
vn 0.6043 0.2503 -0.7564
vn 0.9630 -0.2686 0.0221
vn 0.9319 -0.3521 0.0871
vn 0.9386 -0.2555 0.2319
vn -0.5440 -0.6388 0.5440
vn -0.5452 -0.6368 -0.5452
vn 0.6523 -0.3860 -0.6523
vn -0.9858 -0.1273 0.1095
vn -0.9614 0.1454 -0.2337
vn -0.9996 -0.0260 -0.0098
vn -0.6974 0.4769 0.5349
vn 0.6057 0.3429 0.7181
vn 0.2527 -0.0556 0.9659
vn 0.5513 0.8107 0.1971
vn 0.3888 0.7998 -0.4573
vn -0.4722 0.6251 -0.6215
usemtl Material
s off
f 98/1/1 48/2/1 7/3/1 33/4/1
f 97/5/2 33/6/2 7/7/2 30/8/2
f 96/9/3 36/10/3 5/11/3 44/12/3
f 95/13/4 50/14/4 4/15/4 35/16/4
f 94/17/5 34/18/5 3/19/5 43/20/5
f 93/21/6 37/22/6 1/23/6 41/24/6
f 92/25/7 51/26/7 11/27/7 29/28/7
f 91/29/8 52/30/8 21/31/8 53/32/8
f 90/33/9 49/34/9 19/35/9 54/36/9
f 89/37/10 55/38/10 13/39/10 31/40/10
f 88/41/11 56/42/11 22/43/11 57/44/11
f 87/45/12 46/46/12 16/47/12 58/48/12
f 86/49/13 59/50/13 17/51/13 47/52/13
f 85/53/14 60/54/14 23/55/14 61/56/14
f 84/57/15 38/58/15 20/59/15 62/60/15
f 83/61/16 63/62/16 14/63/16 32/64/16
f 82/65/17 64/66/17 24/67/17 65/68/17
f 81/69/18 48/70/18 18/71/18 66/72/18
f 80/73/19 67/74/19 12/75/19 42/76/19
f 79/77/20 68/78/20 25/79/20 69/80/20
f 78/81/21 45/82/21 15/83/21 70/84/21
f 77/85/22 71/86/22 15/87/22 45/88/22
f 76/89/23 72/90/23 26/91/23 73/92/23
f 75/93/24 36/94/24 18/95/24 74/96/24
f 72/90/25 75/93/25 74/96/25 26/91/25
f 19/97/26 49/98/26 75/93/26 72/90/26
f 49/98/27 5/99/27 36/94/27 75/93/27
f 46/46/28 76/89/28 73/92/28 16/47/28
f 1/23/29 37/100/29 76/89/29 46/46/29
f 37/100/30 19/97/30 72/90/30 76/89/30
f 34/18/31 77/85/31 45/88/31 3/19/31
f 16/47/32 73/92/32 77/85/32 34/18/32
f 73/92/33 26/91/33 71/86/33 77/85/33
f 68/78/34 78/81/34 70/84/34 25/79/34
f 13/39/35 43/20/35 78/81/35 68/78/35
f 43/20/36 3/19/36 45/82/36 78/81/36
f 35/101/37 79/77/37 69/80/37 17/102/37
f 4/15/38 31/40/38 79/77/38 35/101/38
f 31/40/39 13/39/39 68/78/39 79/77/39
f 47/103/40 80/73/40 42/76/40 8/104/40
f 17/102/41 69/80/41 80/73/41 47/103/41
f 69/80/42 25/79/42 67/74/42 80/73/42
f 64/66/43 81/69/43 66/72/43 24/67/43
f 12/105/44 30/106/44 81/69/44 64/66/44
f 30/106/45 7/107/45 48/70/45 81/69/45
f 27/108/46 82/65/46 65/68/46 9/109/46
f 8/110/47 42/111/47 82/65/47 27/108/47
f 42/111/48 12/105/48 64/66/48 82/65/48
f 39/112/49 83/61/49 32/64/49 6/113/49
f 9/109/50 65/68/50 83/61/50 39/112/50
f 65/68/51 24/67/51 63/62/51 83/61/51
f 60/54/52 84/57/52 62/60/52 23/55/52
f 10/114/53 40/115/53 84/57/53 60/54/53
f 40/115/54 2/116/54 38/58/54 84/57/54
f 39/117/55 85/53/55 61/56/55 9/118/55
f 6/119/56 28/120/56 85/53/56 39/117/56
f 28/120/57 10/114/57 60/54/57 85/53/57
f 27/121/58 86/49/58 47/52/58 8/122/58
f 9/118/59 61/56/59 86/49/59 27/121/59
f 61/56/60 23/55/60 59/50/60 86/49/60
f 56/42/61 87/45/61 58/48/61 22/43/61
f 11/27/62 41/24/62 87/45/62 56/42/62
f 41/24/63 1/23/63 46/46/63 87/45/63
f 38/58/64 88/41/64 57/44/64 20/59/64
f 2/116/65 29/28/65 88/41/65 38/58/65
f 29/28/66 11/27/66 56/42/66 88/41/66
f 50/14/67 89/37/67 31/40/67 4/15/67
f 20/59/68 57/44/68 89/37/68 50/14/68
f 57/44/69 22/43/69 55/38/69 89/37/69
f 52/30/70 90/33/70 54/36/70 21/31/70
f 14/63/71 44/12/71 90/33/71 52/30/71
f 44/12/72 5/11/72 49/34/72 90/33/72
f 28/123/73 91/29/73 53/32/73 10/124/73
f 6/113/74 32/64/74 91/29/74 28/123/74
f 32/64/75 14/63/75 52/30/75 91/29/75
f 40/125/76 92/25/76 29/28/76 2/116/76
f 10/124/77 53/32/77 92/25/77 40/125/77
f 53/32/78 21/31/78 51/26/78 92/25/78
f 51/26/6 93/21/6 41/24/6 11/27/6
f 21/31/79 54/36/79 93/21/79 51/26/79
f 54/36/80 19/35/80 37/22/80 93/21/80
f 55/38/81 94/17/81 43/20/81 13/39/81
f 22/43/82 58/48/82 94/17/82 55/38/82
f 58/48/83 16/47/83 34/18/83 94/17/83
f 59/50/84 95/13/84 35/16/84 17/51/84
f 23/55/85 62/60/85 95/13/85 59/50/85
f 62/60/86 20/59/86 50/14/86 95/13/86
f 63/62/87 96/9/87 44/12/87 14/63/87
f 24/67/88 66/72/88 96/9/88 63/62/88
f 66/72/89 18/71/89 36/10/89 96/9/89
f 67/74/90 97/5/90 30/8/90 12/75/90
f 25/79/91 70/84/91 97/5/91 67/74/91
f 70/84/92 15/83/92 33/6/92 97/5/92
f 71/86/93 98/1/93 33/4/93 15/87/93
f 26/91/94 74/96/94 98/1/94 71/86/94
f 74/96/95 18/95/95 48/2/95 98/1/95
